<svg width="76" height="72" viewBox="0 0 76 72" fill="none" xmlns="http://www.w3.org/2000/svg">
<g filter="url(#filter0_d_1402_2008)">
<path d="M37.1755 33.1825C37.6465 32.8415 37.8739 32.2785 37.8739 31.5043C37.8901 31.1362 37.8143 30.7735 37.6519 30.4432C37.5058 30.178 37.2892 29.956 37.024 29.799C36.7489 29.6322 36.4434 29.5218 36.1253 29.4742C35.7788 29.4092 35.4269 29.3767 35.0805 29.3822H31.2747V33.6968H35.3944C36.1036 33.7022 36.7045 33.529 37.1755 33.1825ZM37.8143 37.0804C37.2838 36.6743 36.5746 36.474 35.6922 36.474H31.2638V41.5629H35.6056C36.0116 41.5629 36.3851 41.525 36.7479 41.4492C37.091 41.3821 37.4182 41.2497 37.7115 41.0594C37.9876 40.8807 38.2095 40.6371 38.3774 40.3231C38.5398 40.0091 38.621 39.6085 38.621 39.1267C38.621 38.1685 38.3503 37.4918 37.8143 37.0804ZM42.1399 11.1869C28.7465 11.1869 17.8867 22.0467 17.8867 35.44C17.8867 48.8334 28.7465 59.6932 42.1399 59.6932C55.5332 59.6932 66.393 48.8334 66.393 35.44C66.393 22.0467 55.5332 11.1869 42.1399 11.1869ZM46.8227 26.7186H54.3151V28.543H46.8227V26.7186ZM42.1399 41.7632C41.7894 42.4284 41.289 43.0029 40.6782 43.4414C40.0394 43.8853 39.3302 44.2101 38.5777 44.3996C37.7904 44.6106 36.9782 44.7144 36.1632 44.7082H27.1982V26.2422H35.9142C36.7966 26.2422 37.5978 26.3234 38.3286 26.475C39.0541 26.6266 39.6712 26.8865 40.1909 27.2383C40.7052 27.5902 41.1113 28.0612 41.3982 28.6459C41.6797 29.2252 41.8259 29.9506 41.8259 30.8114C41.8259 31.7425 41.6147 32.5112 41.1925 33.1338C40.7648 33.7564 40.1476 34.2598 39.3085 34.655C40.4508 34.9799 41.2899 35.5591 41.8421 36.3712C42.4051 37.194 42.6812 38.1793 42.6812 39.3378C42.6812 40.2798 42.5026 41.0865 42.1399 41.7632ZM57.2331 38.9048H47.5752C47.5752 39.955 47.9379 40.9619 48.4846 41.5033C49.0368 42.0393 49.8272 42.3099 50.8612 42.3099C51.6083 42.3099 52.2417 42.1205 52.7831 41.7469C53.319 41.3734 53.6438 40.9782 53.7629 40.5667H57.0003C56.4806 42.1746 55.6902 43.3223 54.6183 44.0152C53.5572 44.7082 52.258 45.0547 50.7475 45.0547C49.6919 45.0547 48.7445 44.8814 47.8946 44.5512C47.0771 44.2318 46.3408 43.7446 45.7345 43.1166C45.1367 42.4717 44.6746 41.7132 44.3757 40.8861C44.0455 39.9712 43.883 39.0076 43.8939 38.0386C43.8939 37.037 44.0617 36.1059 44.3865 35.2397C45.0091 33.5561 46.3029 32.2081 47.9541 31.5097C48.8365 31.1416 49.7839 30.9575 50.7421 30.9683C51.879 30.9683 52.8643 31.1849 53.7196 31.6288C54.5431 32.0527 55.2581 32.6603 55.8093 33.4045C56.3561 34.1462 56.7405 34.9907 56.9841 35.9435C57.2169 36.8801 57.2981 37.8653 57.2331 38.9048ZM50.6284 33.7293C50.0438 33.7293 49.5511 33.8322 49.1722 34.0325C48.7932 34.2328 48.4792 34.4818 48.241 34.7687C48.0142 35.0458 47.8465 35.3664 47.7484 35.7107C47.6618 35.9976 47.6022 36.29 47.5806 36.5877H53.5626C53.476 35.6512 53.1512 34.9582 52.7181 34.471C52.2634 33.9892 51.5325 33.7293 50.6284 33.7293Z" fill="#6400A9"/>
</g>
<path d="M27.9327 36.4931C20.4055 29.0727 14.1503 21.8159 10.3665 16.127C8.47104 13.2773 7.28524 10.9548 6.79795 9.23719C6.55401 8.37735 6.49698 7.70916 6.58322 7.21911C6.66595 6.74898 6.87663 6.45029 7.19946 6.26517C7.54522 6.06691 8.07416 5.96809 8.82985 6.0347C9.57957 6.10079 10.5045 6.32561 11.5981 6.71882C13.7844 7.50497 16.5744 8.9383 19.8609 10.9929C26.4303 15.0997 34.4485 21.3535 42.3637 28.5499C50.2782 35.7457 57.5126 43.3593 62.6705 49.9166C65.2501 53.196 67.2104 56.0842 68.494 58.4615C69.1358 59.6502 69.6033 60.7018 69.8955 61.6039C70.1895 62.5114 70.296 63.2374 70.2459 63.7863C70.197 64.321 70.0051 64.6514 69.7263 64.8572C69.4322 65.0742 68.9662 65.2083 68.2688 65.1853C66.864 65.1391 64.7654 64.4645 62.0145 63.0901C56.5368 60.3533 49.0962 55.1581 41.1304 48.4924" stroke="url(#paint0_angular_1402_2008)"/>
<defs>
<filter id="filter0_d_1402_2008" x="13.8867" y="7.18689" width="56.5059" height="56.5062" filterUnits="userSpaceOnUse" color-interpolation-filters="sRGB">
<feFlood flood-opacity="0" result="BackgroundImageFix"/>
<feColorMatrix in="SourceAlpha" type="matrix" values="0 0 0 0 0 0 0 0 0 0 0 0 0 0 0 0 0 0 127 0" result="hardAlpha"/>
<feOffset/>
<feGaussianBlur stdDeviation="2"/>
<feComposite in2="hardAlpha" operator="out"/>
<feColorMatrix type="matrix" values="0 0 0 0 0.481151 0 0 0 0 0 0 0 0 0 0.808333 0 0 0 1 0"/>
<feBlend mode="normal" in2="BackgroundImageFix" result="effect1_dropShadow_1402_2008"/>
<feBlend mode="normal" in="SourceGraphic" in2="effect1_dropShadow_1402_2008" result="shape"/>
</filter>
<radialGradient xmlns="http://www.w3.org/2000/svg" id="paint0_angular_1402_2008" cx="1" cy="0" r="6" gradientUnits="userSpaceOnUse" gradientTransform="translate(30.2918 34.1526) rotate(133.347) scale(8.03718 21.5483)">
<stop offset="0.25" stop-color="white" stop-opacity="0"/>
<stop offset="0.489583" stop-color="white"/>
<stop offset="0.802083" stop-color="white" stop-opacity="0"/>
</radialGradient>
</defs>
</svg>
