<svg width="76" height="72" viewBox="0 0 76 72" fill="none" xmlns="http://www.w3.org/2000/svg">
<g filter="url(#filter0_d_1402_2009)">
<path fill-rule="evenodd" clip-rule="evenodd" d="M42.0378 60.0211C55.2973 60.0211 66.0463 49.2722 66.0463 36.0126C66.0463 22.7531 55.2973 12.0042 42.0378 12.0042C28.7783 12.0042 18.0293 22.7531 18.0293 36.0126C18.0293 49.2722 28.7783 60.0211 42.0378 60.0211ZM34.7816 18.7643C34.8937 18.7161 35.0062 18.6691 35.1191 18.6232C35.1421 18.6132 35.1653 18.6039 35.1886 18.5951C37.4481 17.6866 39.8624 17.2203 42.3004 17.2233C43.1652 17.2244 43.8653 17.9263 43.8643 18.791C43.8632 19.6558 43.1613 20.3559 42.2966 20.3549C41.0794 20.3534 39.8692 20.4919 38.6896 20.7657C40.6518 22.804 43.1597 25.7256 45.2195 28.9899C48.1287 27.2913 50.6302 25.2637 52.2757 23.8685C51.1763 22.9832 49.9624 22.2461 48.6646 21.6783C47.8724 21.3316 47.5112 20.4084 47.8578 19.6162C48.2044 18.8239 49.1277 18.4627 49.9199 18.8093C52.0886 19.7582 54.0619 21.1024 55.7389 22.7731C57.5193 24.5414 58.9318 26.645 59.8947 28.9623C60.8577 31.2801 61.3519 33.7657 61.3487 36.2755C61.3485 38.6171 60.9249 40.8643 60.148 42.9416C59.845 43.7516 58.9428 44.1626 58.1329 43.8596C57.3229 43.5567 56.9119 42.6545 57.2149 41.8446C57.6942 40.5631 58.0129 39.2025 58.1463 37.7865L57.9526 37.7775H57.9525C55.6883 37.6719 52.4941 37.5228 49.1417 38.1302C49.7727 40.4663 50.2527 42.8245 50.6279 44.9115C50.891 46.3749 51.1048 47.7186 51.2823 48.8338L51.2823 48.8341L51.309 49.0017L51.3663 49.3608C52.1373 48.8257 52.8611 48.2219 53.5284 47.5557C54.1405 46.9448 55.1318 46.9457 55.7428 47.5577C56.3537 48.1697 56.3528 49.1611 55.7408 49.772C53.9745 51.5353 51.878 52.9331 49.5711 53.8857C47.2642 54.8383 44.7923 55.327 42.2965 55.3237C41.4317 55.3226 40.7316 54.6207 40.7327 53.7559C40.7339 52.8912 41.4358 52.1911 42.3005 52.1922C44.3849 52.1949 46.4493 51.7868 48.3759 50.9913L48.4543 50.9586C48.3796 50.518 48.3006 50.0229 48.2164 49.494L48.1906 49.3318L48.1905 49.3316L48.1905 49.3316C48.0126 48.2134 47.8031 46.8973 47.5457 45.4656C47.1744 43.3998 46.7079 41.1214 46.1063 38.9014C45.5764 39.079 45.0483 39.2811 44.525 39.5109C38.771 42.0376 34.4235 45.7812 32.0811 48.4813C32.899 49.1664 33.7882 49.772 34.7381 50.2861C35.4986 50.6976 35.7815 51.6478 35.37 52.4083C34.9584 53.1689 34.0082 53.4518 33.2477 53.0402C29.3824 50.9484 26.3559 47.5887 24.6778 43.5266C24.3476 42.7274 24.7278 41.8118 25.5271 41.4816C26.3263 41.1515 27.2419 41.5317 27.572 42.3309C28.1569 43.7467 28.9377 45.0604 29.8835 46.2379C32.5553 43.2171 37.2059 39.3047 43.2661 36.6435L43.2662 36.6435C43.9011 36.3647 44.5439 36.1215 45.1892 35.9094C44.8704 34.9935 44.4669 34.0728 44.0024 33.1612C43.7382 33.2838 43.472 33.4026 43.204 33.517C40.1654 34.8146 36.374 35.3822 33.0175 35.6152C30.4884 35.7907 28.1281 35.7809 26.3886 35.722C26.3825 35.9048 26.3796 36.0879 26.3798 36.2714C26.381 37.1361 25.681 37.8381 24.8162 37.8393C23.9515 37.8405 23.2495 37.1404 23.2483 36.2757C23.2472 35.4885 23.295 34.7062 23.3901 33.9328C23.3928 33.9054 23.3962 33.8781 23.4003 33.8512C23.9091 29.8548 25.6799 26.1003 28.4871 23.1527C30.265 21.2771 32.4068 19.7838 34.7816 18.7643ZM30.7604 25.3065C32.0943 23.8994 33.6734 22.7499 35.4186 21.9135C37.3406 23.7917 40.1801 26.929 42.4299 30.4371C42.2786 30.5053 42.1267 30.572 41.9742 30.6371C39.4178 31.7288 36.0402 32.2663 32.8006 32.4911C30.5459 32.6476 28.4247 32.6488 26.805 32.602C27.4471 29.8854 28.8005 27.3639 30.756 25.3111L30.7588 25.3082L30.7604 25.3065ZM46.7743 31.7062C50.0783 29.7788 52.8586 27.4916 54.521 26.0721C55.5486 27.3006 56.3862 28.6797 57.0028 30.1639C57.5979 31.596 57.9786 33.1049 58.1353 34.6419C55.8531 34.526 52.1493 34.3646 48.231 35.1248C48.2037 35.0446 48.1762 34.9647 48.1484 34.8849C47.7771 33.8172 47.3095 32.7525 46.7743 31.7062Z" fill="#6400A9"/>
</g>
<path d="M27.3536 36.4931C19.8264 29.0727 13.5712 21.8159 9.78736 16.127C7.89194 13.2773 6.70614 10.9548 6.21885 9.23719C5.97491 8.37735 5.91788 7.70916 6.00412 7.21911C6.08685 6.74898 6.29753 6.45029 6.62036 6.26517C6.96612 6.06691 7.49506 5.96809 8.25075 6.0347C9.00047 6.10079 9.92542 6.32561 11.019 6.71882C13.2053 7.50497 15.9953 8.9383 19.2818 10.9929C25.8512 15.0997 33.8694 21.3535 41.7846 28.5499C49.6991 35.7457 56.9335 43.3593 62.0914 49.9166C64.671 53.196 66.6313 56.0842 67.9149 58.4615C68.5567 59.6502 69.0242 60.7018 69.3164 61.6039C69.6104 62.5114 69.7169 63.2374 69.6668 63.7863C69.6179 64.321 69.426 64.6514 69.1472 64.8572C68.8531 65.0742 68.3871 65.2083 67.6897 65.1853C66.2849 65.1391 64.1863 64.4645 61.4354 63.0901C55.9577 60.3533 48.5171 55.1581 40.5513 48.4924" stroke="url(#paint0_angular_1402_2009)"/>
<defs>
<filter id="filter0_d_1402_2009" x="14.0293" y="8.00415" width="56.0166" height="56.017" filterUnits="userSpaceOnUse" color-interpolation-filters="sRGB">
<feFlood flood-opacity="0" result="BackgroundImageFix"/>
<feColorMatrix in="SourceAlpha" type="matrix" values="0 0 0 0 0 0 0 0 0 0 0 0 0 0 0 0 0 0 127 0" result="hardAlpha"/>
<feOffset/>
<feGaussianBlur stdDeviation="2"/>
<feComposite in2="hardAlpha" operator="out"/>
<feColorMatrix type="matrix" values="0 0 0 0 0.466667 0 0 0 0 0.0509804 0 0 0 0 1 0 0 0 1 0"/>
<feBlend mode="normal" in2="BackgroundImageFix" result="effect1_dropShadow_1402_2009"/>
<feBlend mode="normal" in="SourceGraphic" in2="effect1_dropShadow_1402_2009" result="shape"/>
</filter>
<radialGradient xmlns="http://www.w3.org/2000/svg" id="paint0_angular_1402_2009" cx="1" cy="0" r="6" gradientUnits="userSpaceOnUse" gradientTransform="translate(30.2918 34.1526) rotate(133.347) scale(8.03718 21.5483)">
<stop offset="0.25" stop-color="white" stop-opacity="0"/>
<stop offset="0.489583" stop-color="white"/>
<stop offset="0.802083" stop-color="white" stop-opacity="0"/>
</radialGradient>
</defs>
</svg>
