<svg width="410" height="382" viewBox="0 0 410 382" fill="none" xmlns="http://www.w3.org/2000/svg">
<path d="M134.402 201.469C86.9761 154.46 47.7748 108.114 24.3577 71.3836C12.6459 53.0132 5.31977 37.7332 2.48525 26.123C-0.357003 14.481 1.3569 6.75475 7.36096 3.1296C10.3972 1.29635 14.5453 0.490605 19.764 0.741437C24.979 0.992092 31.2228 2.29611 38.4115 4.63845C52.7887 9.32303 70.8761 18.1376 91.9484 30.8597C134.089 56.3016 185.106 95.5217 235.145 140.952C285.183 186.381 330.678 234.782 362.845 276.807C378.93 297.82 391.103 316.482 398.975 332.006C406.86 347.557 410.382 359.872 409.289 368.229C408.746 372.382 407.076 375.455 404.376 377.508C401.665 379.57 397.855 380.65 392.952 380.688C383.132 380.764 369.121 376.66 351.386 368.296C315.939 351.578 268.371 319.147 217.868 277.247" stroke="url(#paint0_angular_1183_939)"/>
<defs>
<radialGradient id="paint0_angular_1183_939" cx="0" cy="0" r="1" gradientUnits="userSpaceOnUse" gradientTransform="translate(156.892 183.13) rotate(133.301) scale(55.0147 135.932)">
<stop offset="0.104167" stop-color="white" stop-opacity="0"/>
<stop offset="0.489583" stop-color="white"/>
<stop offset="0.802083" stop-color="white" stop-opacity="0"/>
</radialGradient>
</defs>
</svg>
