<svg width="411" height="382" viewBox="0 0 411 382" fill="none" xmlns="http://www.w3.org/2000/svg">
    <path d="M134.553 201.653C87.1267 154.644 47.9255 108.299 24.5083 71.5681C12.7965 53.1978 5.4704 37.9178 2.63589 26.3075C-0.206368 14.6656 1.50754 6.93932 7.51159 3.31417C10.5479 1.48092 14.696 0.675175 19.9147 0.926007C25.1297 1.17666 31.3735 2.48068 38.5622 4.82302C52.9393 9.5076 71.0267 18.3222 92.099 31.0442C134.24 56.4862 185.257 95.7063 235.296 141.136C285.334 186.565 330.828 234.967 362.996 276.991C379.08 298.004 391.254 316.666 399.126 332.191C407.011 347.741 410.533 360.057 409.44 368.414C408.896 372.567 407.227 375.639 404.527 377.693C401.816 379.755 398.006 380.835 393.103 380.873C383.283 380.949 369.271 376.844 351.537 368.48C316.089 351.763 268.522 319.332 218.019 277.431" stroke="url(#paint0_angular_1866_215)"/>
    <defs>
        <radialGradient id="paint0_angular_1866_215" cx="1" cy="0" r="6" gradientUnits="userSpaceOnUse" gradientTransform="translate(157.043 183.314) rotate(133.301) scale(55.0147 135.932)">
            <stop offset="0.20" stop-color="white" stop-opacity="0"/>
            <stop offset="0.48" stop-color="white"/>
            <stop offset="0.80" stop-color="white" stop-opacity="0"/>
        </radialGradient>
    </defs>
</svg>