<svg width="77" height="72" viewBox="0 0 77 72" fill="none" xmlns="http://www.w3.org/2000/svg">
<g filter="url(#filter0_d_1409_2027)">
<path fill-rule="evenodd" clip-rule="evenodd" d="M38.5759 60.7943C51.8354 60.7943 62.5844 50.0454 62.5844 36.7858C62.5844 23.5263 51.8354 12.7773 38.5759 12.7773C25.3164 12.7773 14.5674 23.5263 14.5674 36.7858C14.5674 50.0454 25.3164 60.7943 38.5759 60.7943ZM22.3966 36.525C22.3966 27.4498 29.762 20.0844 38.8372 20.0844C47.9124 20.0844 55.2778 27.4498 55.2778 36.525V38.876C55.2778 42.1148 52.7624 44.7453 49.5236 44.7453C47.5672 44.7453 45.7258 43.7917 44.6572 42.3285C43.1775 43.8246 41.106 44.7453 38.8372 44.7453C34.2996 44.7453 30.6169 41.0626 30.6169 36.525C30.6169 31.9874 34.2996 28.3047 38.8372 28.3047C43.3748 28.3047 47.0575 31.9874 47.0575 36.525V38.876C47.0575 40.1748 48.2248 41.4572 49.5236 41.4572C50.8224 41.4572 51.9897 40.1748 51.9897 38.876V36.525C51.9897 29.3898 45.9724 23.3725 38.8372 23.3725C31.702 23.3725 25.6847 29.3898 25.6847 36.525C25.6847 43.6602 31.702 49.6775 38.8372 49.6775H47.0575V52.9656H38.8372C29.762 52.9656 22.3966 45.6002 22.3966 36.525ZM33.905 36.525C33.905 39.2541 36.1081 41.4572 38.8372 41.4572C41.5664 41.4572 43.7694 39.2541 43.7694 36.525C43.7694 33.7958 41.5664 31.5928 38.8372 31.5928C36.1081 31.5928 33.905 33.7958 33.905 36.525Z" fill="#6400A9"/>
</g>
<path d="M28.0674 37.2665C20.5403 29.8461 14.2851 22.5893 10.5012 16.9005C8.60581 14.0508 7.42 11.7283 6.93272 10.0106C6.68878 9.15079 6.63175 8.4826 6.71799 7.99254C6.80072 7.52241 7.01139 7.22373 7.33422 7.03861C7.67999 6.84034 8.20893 6.74153 8.96462 6.80814C9.71434 6.87423 10.6393 7.09904 11.7329 7.49226C13.9192 8.2784 16.7092 9.71174 19.9957 11.7663C26.5651 15.8731 34.5833 22.1269 42.4985 29.3233C50.413 36.5191 57.6473 44.1328 62.8053 50.6901C65.3849 53.9694 67.3451 56.8576 68.6287 59.235C69.2706 60.4236 69.7381 61.4752 70.0303 62.3773C70.3243 63.2848 70.4308 64.0109 70.3806 64.5597C70.3318 65.0945 70.1399 65.4249 69.8611 65.6306C69.567 65.8476 69.1009 65.9817 68.4036 65.9588C66.9988 65.9126 64.9001 65.238 62.1493 63.8636C56.6715 61.1268 49.231 55.9315 41.2652 49.2658" stroke="url(#paint0_angular_1409_2027)"/>
<defs>
<filter id="filter0_d_1409_2027" x="10.5674" y="8.77734" width="56.0166" height="56.0171" filterUnits="userSpaceOnUse" color-interpolation-filters="sRGB">
<feFlood flood-opacity="0" result="BackgroundImageFix"/>
<feColorMatrix in="SourceAlpha" type="matrix" values="0 0 0 0 0 0 0 0 0 0 0 0 0 0 0 0 0 0 127 0" result="hardAlpha"/>
<feOffset/>
<feGaussianBlur stdDeviation="2"/>
<feComposite in2="hardAlpha" operator="out"/>
<feColorMatrix type="matrix" values="0 0 0 0 0.481151 0 0 0 0 0 0 0 0 0 0.808333 0 0 0 1 0"/>
<feBlend mode="normal" in2="BackgroundImageFix" result="effect1_dropShadow_1409_2027"/>
<feBlend mode="normal" in="SourceGraphic" in2="effect1_dropShadow_1409_2027" result="shape"/>
</filter>
<radialGradient xmlns="http://www.w3.org/2000/svg" id="paint0_angular_1409_2027" cx="1" cy="0" r="6" gradientUnits="userSpaceOnUse" gradientTransform="translate(30.2918 34.1526) rotate(133.347) scale(8.03718 21.5483)">
<stop offset="0.25" stop-color="white" stop-opacity="0"/>
<stop offset="0.489583" stop-color="white"/>
<stop offset="0.802083" stop-color="white" stop-opacity="0"/>
</radialGradient>
</defs>
</svg>
