<svg width="76" height="72" viewBox="0 0 76 72" fill="none" xmlns="http://www.w3.org/2000/svg">
<g filter="url(#filter0_d_1402_2007)">
<path d="M50.8693 35.44C50.8693 37.4501 50.0708 39.3779 48.6495 40.7993C47.2281 42.2206 45.3003 43.0191 43.2902 43.0191C41.2801 43.0191 39.3524 42.2206 37.931 40.7993C36.5096 39.3779 35.7111 37.4501 35.7111 35.44C35.7111 35.008 35.7566 34.5861 35.8349 34.1768H33.1848V44.2747C33.1848 44.9771 33.7532 45.5455 34.4555 45.5455H52.1275C52.4641 45.5448 52.7866 45.4106 53.0244 45.1724C53.2622 44.9342 53.3957 44.6113 53.3957 44.2747V34.1768H50.7456C50.8239 34.5861 50.8693 35.008 50.8693 35.44ZM43.2902 40.4928C43.9539 40.4926 44.6111 40.3617 45.2242 40.1076C45.8373 39.8534 46.3944 39.481 46.8636 39.0116C47.3328 38.5422 47.7049 37.9849 47.9587 37.3717C48.2126 36.7584 48.3431 36.1012 48.343 35.4375C48.3428 34.7738 48.2119 34.1166 47.9578 33.5035C47.7036 32.8904 47.3312 32.3333 46.8618 31.8641C46.3924 31.395 45.8351 31.0228 45.2219 30.769C44.6087 30.5152 43.9514 30.3846 43.2877 30.3848C41.9473 30.3851 40.6619 30.9179 39.7144 31.8659C38.7668 32.814 38.2346 34.0996 38.235 35.44C38.2353 36.7804 38.7681 38.0658 39.7162 39.0134C40.6642 39.9609 41.9498 40.4931 43.2902 40.4928ZM49.3535 30.1346H52.3826C52.5839 30.1346 52.7769 30.0549 52.9195 29.9128C53.062 29.7708 53.1424 29.578 53.1431 29.3767V26.3476C53.1431 26.1459 53.063 25.9525 52.9203 25.8099C52.7777 25.6673 52.5843 25.5872 52.3826 25.5872H49.3535C49.1518 25.5872 48.9584 25.6673 48.8158 25.8099C48.6732 25.9525 48.5931 26.1459 48.5931 26.3476V29.3767C48.5956 29.7936 48.9367 30.1346 49.3535 30.1346ZM43.2902 11.1869C36.8579 11.1869 30.689 13.7421 26.1407 18.2905C21.5923 22.8388 19.0371 29.0077 19.0371 35.44C19.0371 41.8724 21.5923 48.0412 26.1407 52.5896C30.689 57.1379 36.8579 59.6932 43.2902 59.6932C46.4752 59.6932 49.629 59.0658 52.5715 57.847C55.514 56.6282 58.1877 54.8417 60.4398 52.5896C62.6919 50.3375 64.4784 47.6638 65.6972 44.7213C66.916 41.7788 67.5434 38.625 67.5434 35.44C67.5434 32.2551 66.916 29.1013 65.6972 26.1587C64.4784 23.2162 62.6919 20.5426 60.4398 18.2905C58.1877 16.0384 55.514 14.2519 52.5715 13.033C49.629 11.8142 46.4752 11.1869 43.2902 11.1869ZM55.9221 45.2651C55.9221 46.8087 54.6589 48.0719 53.1153 48.0719H33.4652C31.9216 48.0719 30.6584 46.8087 30.6584 45.2651V25.615C30.6584 24.0714 31.9216 22.8082 33.4652 22.8082H53.1153C54.6589 22.8082 55.9221 24.0714 55.9221 25.615V45.2651Z" fill="#6400A9"/>
</g>
<path d="M27.5128 36.4931C19.9856 29.0727 13.7304 21.8159 9.94654 16.127C8.05112 13.2773 6.86532 10.9548 6.37803 9.23719C6.13409 8.37735 6.07706 7.70916 6.1633 7.21911C6.24603 6.74898 6.45671 6.45029 6.77954 6.26517C7.1253 6.06691 7.65424 5.96809 8.40993 6.0347C9.15965 6.10079 10.0846 6.32561 11.1782 6.71882C13.3645 7.50497 16.1545 8.9383 19.441 10.9929C26.0104 15.0997 34.0286 21.3535 41.9438 28.5499C49.8583 35.7457 57.0926 43.3593 62.2506 49.9166C64.8302 53.196 66.7904 56.0842 68.0741 58.4615C68.7159 59.6502 69.1834 60.7018 69.4756 61.6039C69.7696 62.5114 69.8761 63.2374 69.826 63.7863C69.7771 64.321 69.5852 64.6514 69.3064 64.8572C69.0123 65.0742 68.5462 65.2083 67.8489 65.1853C66.4441 65.1391 64.3454 64.4645 61.5946 63.0901C56.1169 60.3533 48.6763 55.1581 40.7105 48.4924" stroke="url(#paint0_angular_1402_2007)"/>
<defs>
<filter id="filter0_d_1402_2007" x="15.0371" y="7.18689" width="56.5059" height="56.5062" filterUnits="userSpaceOnUse" color-interpolation-filters="sRGB">
<feFlood flood-opacity="0" result="BackgroundImageFix"/>
<feColorMatrix in="SourceAlpha" type="matrix" values="0 0 0 0 0 0 0 0 0 0 0 0 0 0 0 0 0 0 127 0" result="hardAlpha"/>
<feOffset/>
<feGaussianBlur stdDeviation="2"/>
<feComposite in2="hardAlpha" operator="out"/>
<feColorMatrix type="matrix" values="0 0 0 0 0.481151 0 0 0 0 0 0 0 0 0 0.808333 0 0 0 1 0"/>
<feBlend mode="normal" in2="BackgroundImageFix" result="effect1_dropShadow_1402_2007"/>
<feBlend mode="normal" in="SourceGraphic" in2="effect1_dropShadow_1402_2007" result="shape"/>
</filter>
<radialGradient xmlns="http://www.w3.org/2000/svg" id="paint0_angular_1402_2007" cx="1" cy="0" r="6" gradientUnits="userSpaceOnUse" gradientTransform="translate(30.2918 34.1526) rotate(133.347) scale(8.03718 21.5483)">
<stop offset="0.25" stop-color="white" stop-opacity="0"/>
<stop offset="0.489583" stop-color="white"/>
<stop offset="0.802083" stop-color="white" stop-opacity="0"/>
</radialGradient>
</defs>
</svg>
