<svg width="76" height="72" viewBox="0 0 76 72" fill="none" xmlns="http://www.w3.org/2000/svg">
<g filter="url(#filter0_d_1402_2010)">
<path d="M38.6876 11.1869C25.4989 11.1869 14.8076 22.0452 14.8076 35.44C14.8076 48.8348 25.4989 59.6932 38.6876 59.6932C51.8764 59.6932 62.5676 48.8348 62.5676 35.44C62.5676 22.0452 51.8764 11.1869 38.6876 11.1869ZM32.842 45.4924H28.0063V29.6875H32.842V45.4924ZM30.3943 27.7472C28.867 27.7472 27.8794 26.6483 27.8794 25.2891C27.8794 23.9021 28.8968 22.836 30.4565 22.836C32.0161 22.836 32.9713 23.9021 33.0012 25.2891C33.0012 26.6483 32.0161 27.7472 30.3943 27.7472ZM50.5033 45.4924H45.6676V36.7335C45.6676 34.6947 44.9661 33.3103 43.2174 33.3103C41.8816 33.3103 41.0881 34.2476 40.7373 35.1495C40.608 35.4703 40.5756 35.9251 40.5756 36.3773V45.4899H35.7374V34.7276C35.7374 32.7545 35.6753 31.1048 35.6106 29.685H39.812L40.0334 31.8804H40.1304C40.7672 30.8496 42.3268 29.3287 44.9362 29.3287C48.1177 29.3287 50.5033 31.4938 50.5033 36.1474V45.4924Z" fill="#6400A9"/>
</g>
<path d="M27.9922 36.4931C20.4651 29.0727 14.2099 21.8159 10.426 16.127C8.53062 13.2773 7.34481 10.9548 6.85752 9.23719C6.61358 8.37735 6.55655 7.70916 6.64279 7.21911C6.72552 6.74898 6.9362 6.45029 7.25903 6.26517C7.60479 6.06691 8.13373 5.96809 8.88942 6.0347C9.63914 6.10079 10.5641 6.32561 11.6577 6.71882C13.844 7.50497 16.634 8.9383 19.9205 10.9929C26.4899 15.0997 34.5081 21.3535 42.4233 28.5499C50.3378 35.7457 57.5721 43.3593 62.7301 49.9166C65.3097 53.196 67.2699 56.0842 68.5536 58.4615C69.1954 59.6502 69.6629 60.7018 69.9551 61.6039C70.2491 62.5114 70.3556 63.2374 70.3054 63.7863C70.2566 64.321 70.0647 64.6514 69.7859 64.8572C69.4918 65.0742 69.0257 65.2083 68.3284 65.1853C66.9236 65.1391 64.8249 64.4645 62.0741 63.0901C56.5963 60.3533 49.1558 55.1581 41.19 48.4924" stroke="url(#paint0_angular_1402_2010)"/>
<defs>
<filter id="filter0_d_1402_2010" x="10.8076" y="7.18689" width="55.7598" height="56.5062" filterUnits="userSpaceOnUse" color-interpolation-filters="sRGB">
<feFlood flood-opacity="0" result="BackgroundImageFix"/>
<feColorMatrix in="SourceAlpha" type="matrix" values="0 0 0 0 0 0 0 0 0 0 0 0 0 0 0 0 0 0 127 0" result="hardAlpha"/>
<feOffset/>
<feGaussianBlur stdDeviation="2"/>
<feComposite in2="hardAlpha" operator="out"/>
<feColorMatrix type="matrix" values="0 0 0 0 0.481151 0 0 0 0 0 0 0 0 0 0.808333 0 0 0 1 0"/>
<feBlend mode="normal" in2="BackgroundImageFix" result="effect1_dropShadow_1402_2010"/>
<feBlend mode="normal" in="SourceGraphic" in2="effect1_dropShadow_1402_2010" result="shape"/>
</filter>
<radialGradient xmlns="http://www.w3.org/2000/svg" id="paint0_angular_1402_2010" cx="1" cy="0" r="6" gradientUnits="userSpaceOnUse" gradientTransform="translate(30.2918 34.1526) rotate(133.347) scale(8.03718 21.5483)">
<stop offset="0.25" stop-color="white" stop-opacity="0"/>
<stop offset="0.489583" stop-color="white"/>
<stop offset="0.802083" stop-color="white" stop-opacity="0"/>
</radialGradient>
</defs>
</svg>
