<svg width="76" height="72" viewBox="0 0 76 72" fill="none" xmlns="http://www.w3.org/2000/svg">
<g filter="url(#filter0_d_1268_2480)">
<path fill-rule="evenodd" clip-rule="evenodd" d="M62.4799 35.4904C62.4799 48.7491 51.7301 59.4989 38.4714 59.4989C25.2127 59.4989 14.4629 48.7491 14.4629 35.4904C14.4629 22.2317 25.2127 11.4819 38.4714 11.4819C51.7301 11.4819 62.4799 22.2317 62.4799 35.4904ZM39.3317 29.2062C36.9969 30.1765 32.3292 32.1873 25.3307 35.2363C24.1943 35.6885 23.5981 36.1307 23.5441 36.5628C23.4521 37.2951 24.3684 37.5832 25.6128 37.9733C25.7829 38.0273 25.959 38.0813 26.139 38.1414C27.3655 38.5395 29.014 39.0057 29.8703 39.0237C30.6486 39.0397 31.5169 38.7196 32.4753 38.0633C39.0136 33.6478 42.3888 31.417 42.6008 31.369C42.7509 31.335 42.959 31.2909 43.099 31.417C43.2391 31.541 43.2251 31.7771 43.2111 31.8411C43.119 32.2273 39.5298 35.5665 37.6691 37.2951C37.0889 37.8333 36.6787 38.2154 36.5947 38.3034C36.4067 38.4975 36.2146 38.6836 36.0305 38.8616C34.8901 39.958 34.0378 40.7823 36.0785 42.1268C37.0589 42.773 37.8432 43.3072 38.6254 43.8394C39.4797 44.4216 40.332 45.0018 41.4364 45.726C41.7165 45.9101 41.9846 46.1002 42.2467 46.2862C43.2411 46.9965 44.1354 47.6327 45.2398 47.5327C45.88 47.4727 46.5442 46.8704 46.8804 45.0718C47.6746 40.8183 49.2392 31.6071 49.6013 27.8097C49.6234 27.4944 49.6099 27.1777 49.5613 26.8654C49.5322 26.6131 49.4094 26.3811 49.2172 26.2151C48.9311 25.9811 48.4869 25.931 48.2869 25.935C47.3845 25.9511 46 26.4332 39.3317 29.2062Z" fill="#6400A9"/>
</g>
<path d="M27.9629 36.4931C20.4358 29.0727 14.1806 21.8159 10.3967 16.127C8.50132 13.2773 7.31551 10.9548 6.82822 9.23719C6.58429 8.37735 6.52725 7.70916 6.61349 7.21911C6.69623 6.74898 6.9069 6.45029 7.22973 6.26517C7.57549 6.06691 8.10443 5.96809 8.86012 6.0347C9.60984 6.10079 10.5348 6.32561 11.6284 6.71882C13.8147 7.50497 16.6047 8.9383 19.8912 10.9929C26.4606 15.0997 34.4788 21.3535 42.394 28.5499C50.3085 35.7457 57.5428 43.3593 62.7008 49.9166C65.2804 53.196 67.2406 56.0842 68.5243 58.4615C69.1661 59.6502 69.6336 60.7018 69.9258 61.6039C70.2198 62.5114 70.3263 63.2374 70.2761 63.7863C70.2273 64.321 70.0354 64.6514 69.7566 64.8572C69.4625 65.0742 68.9964 65.2083 68.2991 65.1853C66.8943 65.1391 64.7956 64.4645 62.0448 63.0901C56.567 60.3533 49.1265 55.1581 41.1607 48.4924" stroke="url(#paint0_angular_1268_2480)"/>
<defs>
<filter id="filter0_d_1268_2480" x="10.4629" y="7.48193" width="56.0166" height="56.017" filterUnits="userSpaceOnUse" color-interpolation-filters="sRGB">
<feFlood flood-opacity="0" result="BackgroundImageFix"/>
<feColorMatrix in="SourceAlpha" type="matrix" values="0 0 0 0 0 0 0 0 0 0 0 0 0 0 0 0 0 0 127 0" result="hardAlpha"/>
<feOffset/>
<feGaussianBlur stdDeviation="2"/>
<feComposite in2="hardAlpha" operator="out"/>
<feColorMatrix type="matrix" values="0 0 0 0 0.481151 0 0 0 0 0 0 0 0 0 0.808333 0 0 0 1 0"/>
<feBlend mode="normal" in2="BackgroundImageFix" result="effect1_dropShadow_1268_2480"/>
<feBlend mode="normal" in="SourceGraphic" in2="effect1_dropShadow_1268_2480" result="shape"/>
</filter>
<radialGradient xmlns="http://www.w3.org/2000/svg" id="paint0_angular_1268_2480" cx="1" cy="0" r="6" gradientUnits="userSpaceOnUse" gradientTransform="translate(30.2918 34.1526) rotate(133.347) scale(8.03718 21.5483)">
        <stop offset="0.25" stop-color="white" stop-opacity="0"/>
        <stop offset="0.489583" stop-color="white"/>
        <stop offset="0.802083" stop-color="white" stop-opacity="0"/>
        </radialGradient>
</defs>
</svg>
