<svg width="49" height="49" viewBox="0 0 49 49" fill="none" xmlns="http://www.w3.org/2000/svg">
<path fill-rule="evenodd" clip-rule="evenodd" d="M48.017 24.0085C48.017 37.2672 37.2672 48.017 24.0085 48.017C10.7498 48.017 0 37.2672 0 24.0085C0 10.7498 10.7498 0 24.0085 0C37.2672 0 48.017 10.7498 48.017 24.0085ZM24.8688 17.7243C22.534 18.6946 17.8663 20.7053 10.8678 23.7544C9.73144 24.2066 9.13523 24.6487 9.08121 25.0809C8.98918 25.8131 9.9055 26.1012 11.1499 26.4914C11.32 26.5454 11.4961 26.5994 11.6761 26.6594C12.9026 27.0576 14.5511 27.5237 15.4074 27.5417C16.1857 27.5577 17.054 27.2376 18.0124 26.5814C24.5507 22.1658 27.9259 19.935 28.138 19.887C28.288 19.853 28.4961 19.809 28.6361 19.9351C28.7762 20.0591 28.7622 20.2952 28.7482 20.3592C28.6561 20.7453 25.0669 24.0845 23.2062 25.8131C22.626 26.3513 22.2159 26.7335 22.1318 26.8215C21.9438 27.0156 21.7517 27.2016 21.5676 27.3797C20.4272 28.4761 19.5749 29.3004 21.6156 30.6448C22.596 31.2911 23.3803 31.8253 24.1625 32.3574C25.0168 32.9397 25.8692 33.5199 26.9735 34.2441C27.2536 34.4282 27.5217 34.6182 27.7838 34.8043C28.7782 35.5146 29.6725 36.1508 30.7769 36.0507C31.4171 35.9907 32.0813 35.3885 32.4175 33.5899C33.2117 29.3364 34.7763 20.1251 35.1384 16.3278C35.1605 16.0125 35.147 15.6957 35.0984 15.3834C35.0693 15.1312 34.9465 14.8991 34.7543 14.7332C34.4682 14.4991 34.024 14.4491 33.824 14.4531C32.9216 14.4691 31.5372 14.9513 24.8688 17.7243V17.7243Z" fill="white"/>
</svg>
