<svg width="129" height="130" viewBox="0 0 129 130" fill="none" xmlns="http://www.w3.org/2000/svg">
<circle cx="64.8991" cy="64.9924" r="62.0495" fill="#F25C05" stroke="white" stroke-width="4"/>
<path d="M43.1458 76.3791H35.8192C36.0709 75.6993 36.1968 75.1077 36.1968 74.6041C36.222 74.0754 36.0709 73.3201 35.7436 72.3381L34.4596 68.7881C32.1936 68.7126 30.7459 68.6748 30.1165 68.6748C28.7821 68.6748 27.2337 68.7378 25.4713 68.8637C24.9677 70.5506 24.7159 71.8598 24.7159 72.7913C24.7159 74.3272 25.2824 75.5231 26.4154 76.3791H19.6553C20.3099 75.8504 20.8386 75.2084 21.2414 74.453C21.6695 73.6725 22.1604 72.5396 22.7143 71.0541L24.1872 67.1264L28.1904 55.6833C28.4422 54.928 28.5681 54.2482 28.5681 53.6439C28.5681 52.8383 28.4548 52.2592 28.2282 51.9067L33.1755 50.4716L40.9553 72.5647C41.6603 74.5286 42.3904 75.8 43.1458 76.3791ZM30.1165 67.2397C31.1487 67.2397 32.395 67.2145 33.8553 67.1642L29.7388 55.7211L26 67.1264C27.0574 67.202 28.4296 67.2397 30.1165 67.2397Z" fill="white"/>
<path d="M44.2684 76.3791C45.2 75.6993 45.6658 74.6922 45.6658 73.3578V61.9902H43.0599V61.7636C44.4195 61.0335 45.2881 60.2404 45.6658 59.3844V57.6471C45.6658 55.1546 46.3581 53.1656 47.7429 51.6801C49.1277 50.1946 50.802 49.4519 52.7658 49.4519C54.9059 49.4519 56.6431 49.9555 57.9775 50.9625C57.8013 51.6675 57.4236 52.4606 56.8445 53.3418C56.2906 54.1978 55.699 54.8776 55.0695 55.3812C54.0121 52.7124 52.9294 51.2395 51.8216 50.9625C51.6202 50.9122 51.4062 50.9122 51.1796 50.9625C50.6509 51.9696 50.3865 53.3418 50.3865 55.0791V59.3089C52.577 59.334 54.3142 59.611 55.5982 60.1397V60.2908C53.0805 60.895 51.3433 61.4741 50.3865 62.028V72.7536C50.3865 73.7103 50.5502 74.4405 50.8775 74.944C51.23 75.4476 51.7587 75.9259 52.4637 76.3791H44.2684Z" fill="white"/>
<path d="M55.8446 76.3791C56.7762 75.6993 57.242 74.6922 57.242 73.3578V64.7849C57.242 63.4254 56.7258 62.4183 55.6935 61.7636L61.8494 59.3466V63.7652L63.4356 60.7062C64.1657 59.8502 65.198 59.4221 66.5324 59.4221C67.187 59.4221 67.7409 59.5354 68.1941 59.762C68.0934 61.6503 67.4891 63.2113 66.3813 64.445C65.8274 63.9918 65.1099 63.7652 64.2287 63.7652C63.3475 63.7652 62.5921 64.017 61.9627 64.5206V73.3578C61.9627 74.6419 62.4537 75.649 63.4356 76.3791H55.8446Z" fill="white"/>
<path d="M69.3404 76.3791C70.2719 75.6993 70.7377 74.6922 70.7377 73.3578V64.8605C70.7377 63.5009 70.2216 62.4686 69.1893 61.7636L75.4585 59.3844V73.3578C75.4585 74.6167 75.9243 75.6238 76.8558 76.3791H69.3404Z" fill="white"/>
<path d="M86.9981 76.9078C84.9587 76.9078 83.1585 76.1903 81.5975 74.7552C80.0617 73.2949 79.2938 71.2933 79.2938 68.7504C79.2938 65.8298 80.175 63.5387 81.9374 61.8769C83.725 60.2152 85.714 59.3844 87.9045 59.3844C90.2208 59.3844 92.1594 59.9005 93.7204 60.9328C93.5442 61.6378 93.1665 62.4434 92.5874 63.3498C92.0084 64.2562 91.4041 64.9612 90.7747 65.4647C90.246 63.9037 89.541 62.733 88.6598 61.9525C87.7786 61.172 86.8848 60.7817 85.9784 60.7817C85.7266 60.7817 85.4874 60.8195 85.2608 60.895C84.3293 62.2042 83.8635 63.9415 83.8635 66.1067C83.8635 68.4482 84.43 70.2862 85.563 71.6206C86.7211 72.955 88.1688 73.6222 89.9061 73.6222C91.316 73.6222 92.5749 73.383 93.6827 72.9046L93.7204 72.9802C92.4867 75.5986 90.246 76.9078 86.9981 76.9078Z" fill="white"/>
<path d="M108.82 72.036C108.82 72.7913 108.921 73.383 109.123 73.811C109.324 74.2139 109.664 74.6041 110.142 74.9818L105.837 76.8323C104.905 76.2281 104.351 75.2335 104.175 73.8488C103.244 75.9133 101.808 76.9456 99.8698 76.9456C98.4599 76.9456 97.3521 76.4546 96.5464 75.4727C95.7407 74.4656 95.3379 73.1942 95.3379 71.6584C95.3379 71.2303 96.2065 70.5883 97.9437 69.7323C99.7062 68.8511 101.771 68.0832 104.137 67.4286V66.3711C104.137 65.2129 103.823 64.3066 103.193 63.6519C102.564 62.9722 101.62 62.6323 100.361 62.6323C98.6739 62.6323 96.9996 62.9847 95.3379 63.6897L95.2623 63.6142C95.8918 62.4308 96.8737 61.4112 98.2081 60.5551C99.5677 59.6739 101.091 59.2333 102.778 59.2333C104.792 59.2333 106.303 59.7746 107.31 60.8573C108.317 61.9399 108.82 63.4128 108.82 65.2759V72.036ZM102.513 73.8866C103.093 73.8866 103.634 73.6977 104.137 73.3201V69.2036C102.45 69.2036 101.028 69.4805 99.8698 70.0344C99.8698 72.6025 100.751 73.8866 102.513 73.8866Z" fill="white"/>
<path d="M69.5293 52.0955C69.7055 53.7824 70.335 55.3434 71.4176 56.7785C73.2052 56.5267 74.7788 55.9224 76.1384 54.9657C75.8111 53.0522 75.2068 51.4535 74.3256 50.1694C72.6891 50.396 71.0903 51.038 69.5293 52.0955Z" fill="white"/>
</svg>
