<svg width="129" height="129" viewBox="0 0 129 129" fill="none" xmlns="http://www.w3.org/2000/svg">
<circle cx="64.8317" cy="64.3058" r="62.0495" fill="#FF9500" stroke="white" stroke-width="4"/>
<path d="M90.1838 71.2274C86.5637 85.7919 71.857 94.6559 57.335 91.0236C42.8189 87.3926 33.982 72.6402 37.6038 58.0764C41.2223 43.5101 55.929 34.6454 70.4467 38.2766C84.9671 41.9078 93.8034 56.6618 90.1838 71.2274ZM75.844 60.7773C76.3835 57.1597 73.6375 55.215 69.8827 53.9177L71.1007 49.0172L68.1268 48.2738L66.941 53.0451C66.1591 52.8497 65.3562 52.6654 64.5584 52.4827L65.7526 47.6799L62.7805 46.9365L61.5616 51.8353C60.9145 51.6874 60.2792 51.5413 59.6626 51.3875L59.666 51.3723L55.5647 50.3452L54.7736 53.5312C54.7736 53.5312 56.9801 54.0383 56.9335 54.0697C58.138 54.3714 58.3556 55.1708 58.3192 55.8046L56.9318 61.3873C57.0148 61.4085 57.1224 61.4392 57.2409 61.4867C57.1419 61.462 57.036 61.4349 56.9268 61.4085L54.982 69.2291C54.8346 69.5961 54.4611 70.1467 53.6192 69.9376C53.6488 69.9809 51.4575 69.3964 51.4575 69.3964L49.9813 72.811L53.8513 73.7787C54.5712 73.9596 55.2767 74.1491 55.9713 74.3275L54.7406 79.284L57.7111 80.0274L58.9299 75.1236C59.7414 75.3445 60.5291 75.5483 61.2999 75.7404L60.0852 80.6213L63.0591 81.3647L64.2898 76.4176C69.3609 77.3801 73.1741 76.9918 74.7792 72.3913C76.0726 68.6871 74.7148 66.5503 72.0468 65.157C73.9898 64.7075 75.4526 63.4255 75.844 60.7773ZM69.0492 70.3344C68.1302 74.0387 61.9122 72.0362 59.8964 71.5341L61.5294 64.9675C63.5453 65.4722 70.0097 66.4713 69.0492 70.3344ZM69.9691 60.7238C69.1305 64.0933 63.9553 62.3813 62.2765 61.9616L63.757 56.006C65.4359 56.4257 70.8423 57.209 69.9691 60.7238Z" fill="white"/>
</svg>
