<svg width="135" height="135" viewBox="0 0 135 135" fill="none" xmlns="http://www.w3.org/2000/svg">
<circle cx="67.1984" cy="67.4372" r="65.0212" fill="#00FFFF" stroke="white" stroke-width="4.19157"/>
<path fill-rule="evenodd" clip-rule="evenodd" d="M43.4062 82.5261H48.2045V71.7477H55.5863V74.5099C55.5863 76.5033 55.9027 78.9033 57.6683 80.7147C59.8404 82.8884 63.1912 83.1146 65.7256 83.1146C68.4862 83.1146 71.6994 82.7524 73.737 80.9868C75.8649 79.1754 76.1354 76.8656 76.1354 74.5099V71.7477H83.5172V82.5261H98.2286C100.356 82.5261 102.709 82.2999 104.656 80.3065C105.697 79.2655 106.694 77.6345 106.694 75.0526C106.694 73.7838 106.468 72.6526 105.789 71.4297C104.928 70.0264 103.978 69.4363 103.119 69.0756C103.707 68.5773 105.11 67.4446 105.11 64.5463C105.11 63.4594 104.884 61.8742 103.571 60.5611C101.761 58.7497 98.8645 58.5234 96.6908 58.5234H83.5188V67.2183H76.137V58.5234H71.3845V73.5591C71.3845 74.782 71.3386 76.4574 70.0271 77.5443C68.9862 78.3147 67.4468 78.4951 65.637 78.4951C64.1878 78.4951 62.6501 78.4492 61.6091 77.5886C60.3878 76.6378 60.3878 75.2788 60.3878 74.0116V58.5234H55.5895V67.2183H48.2077V58.5234H43.4093V67.2183H33.9187H32.5012V58.5234H27.7029V82.5261H32.5012V71.7477H33.9187H43.4093V82.5261H43.4062ZM88.3155 78.1328V71.928H98.0466C98.9974 71.928 100.265 72.1543 100.943 72.7428C101.125 72.8789 101.802 73.5133 101.802 74.9165C101.802 75.823 101.44 76.9083 100.761 77.4525C99.9925 78.1312 98.7253 78.1312 97.6828 78.1312H88.3139L88.3155 78.1328ZM88.3155 67.5347V62.9152H97.1417H97.504C98.0466 62.9152 98.8614 63.0512 99.4056 63.3233C100.265 63.8217 100.311 64.5906 100.311 65.0889C100.311 66.3118 99.7679 66.8545 99.4056 67.0823C98.863 67.4446 97.8663 67.5347 97.1417 67.5347H88.3155Z" fill="white"/>
</svg>
