<svg width="133" height="133" viewBox="0 0 133 133" fill="none" xmlns="http://www.w3.org/2000/svg">
<circle cx="66.5128" cy="66.7657" r="63.9904" fill="#FFD222" stroke="white" stroke-width="4.12512"/>
<path d="M56.9646 41.0606C56.4622 41.0582 55.9723 41.2194 55.5671 41.5203C55.5671 41.5203 50.6885 45.1331 48.6249 46.9251C46.9274 48.3992 46.1979 49.9456 45.7839 51.0437L39.7903 53.0682C39.2838 53.2397 38.8501 53.5812 38.561 54.0362C38.2719 54.4913 38.1446 55.0327 38.2003 55.5709C38.2003 55.5709 38.9542 63.7606 45.2615 69.4776C47.8781 71.8493 53.036 77.1728 57.7986 82.1167C60.1799 84.5887 62.4749 86.9771 64.3558 88.896C66.2368 90.8148 67.5906 92.1828 68.5349 92.9542C70.9016 94.8868 76.2359 100.495 84.3483 100.495C86.368 100.495 88.5682 100.396 90.626 99.4595C92.6838 98.5233 94.4934 96.2097 94.4934 93.3628C94.4934 89.2746 91.9757 86.7144 90.154 85.1302C89.2432 84.3382 88.4884 83.6843 88.0553 83.1243C87.6222 82.5643 87.455 82.2035 87.455 81.4759C87.4598 81.1378 87.3934 80.8024 87.2601 80.4923C87.1268 80.1822 86.9297 79.9045 86.6821 79.6777C86.4344 79.451 86.1419 79.2803 85.824 79.1773C85.5061 79.0742 85.1701 79.041 84.8386 79.08H84.834C79.6692 78.8827 73.3783 73.1415 73.3783 64.8343C73.3783 62.6614 74.1666 58.4083 78.0706 57.7022C78.6928 57.7021 79.2895 57.4516 79.7295 57.0058C80.1694 56.56 80.4166 55.9553 80.4167 55.3248V52.9474V50.5701C80.4167 47.9431 78.3169 45.8153 75.7244 45.8153C73.132 45.8153 71.0322 47.9431 71.0322 50.5701V52.8128C69.9709 52.6995 68.8553 52.5012 67.8292 52.0931C65.9692 51.3532 64.5577 50.2741 63.9297 47.6355C62.7378 42.6185 57.6612 41.172 57.6612 41.172C57.4358 41.0995 57.201 41.062 56.9646 41.0606ZM57.2121 46.2332C58.0291 46.6928 59.0509 47.4247 59.3658 48.7499C60.3543 52.9034 63.2791 55.39 66.1154 56.5182C66.3442 56.6091 66.5658 56.6542 66.7936 56.7317C67.454 57.0888 68.6861 58.0208 68.6861 60.0796C68.6861 61.8151 67.3324 62.4384 66.34 62.4384C64.0853 62.4384 62.9616 60.0796 61.6477 60.0796C60.3339 60.0796 59.3016 60.8308 59.3016 62.4569C59.3016 65.0483 64.041 68.3902 65.5472 70.8056C66.0634 71.6496 65.9081 72.7742 65.0753 73.378C64.3081 73.9319 62.246 72.6844 61.6477 71.9664C65.2198 79.2057 75.5783 90.5603 82.3962 95.5777C77.4855 94.8237 74.0967 91.3891 71.4813 89.2535C71.0695 88.9171 69.5374 87.4358 67.6826 85.5435C65.8277 83.6512 63.5359 81.2706 61.1528 78.7968C56.3867 73.8491 51.3115 68.5771 48.3912 65.9301C44.7582 62.6371 43.7422 58.8807 43.3278 56.8896L46.8241 55.7056L50.27 60.1167C50.4577 60.371 50.6938 60.5846 50.9644 60.7449C51.235 60.9052 51.5345 61.009 51.8453 61.05C52.156 61.0911 52.4718 61.0687 52.7739 60.9841C53.076 60.8994 53.3583 60.7543 53.6041 60.5574C53.8499 60.3604 54.0543 60.1155 54.2052 59.8371C54.3561 59.5587 54.4504 59.2526 54.4826 58.9367C54.5148 58.6207 54.4842 58.3015 54.3927 57.9978C54.3011 57.694 54.1504 57.412 53.9495 57.1682L50.302 52.5017C50.6277 51.8341 51.0883 51.0485 51.6767 50.5376C53.014 49.3763 55.9905 47.152 57.2121 46.2332ZM82.7261 60.0471C82.1047 60.0569 81.5125 60.3162 81.0795 60.768C80.6466 61.2198 80.4082 61.8272 80.4167 62.4569C80.1058 62.4525 79.7971 62.5107 79.5086 62.6282C79.2201 62.7456 78.9576 62.92 78.7361 63.1413C78.5147 63.3625 78.3389 63.626 78.2189 63.9167C78.0989 64.2073 78.0371 64.5193 78.0371 64.8343C78.0371 65.1494 78.0989 65.4613 78.2189 65.752C78.3389 66.0426 78.5147 66.3062 78.7361 66.5274C78.9576 66.7486 79.2201 66.923 79.5086 67.0405C79.7971 67.158 80.1058 67.2162 80.4167 67.2117C81.9337 67.2117 83.2915 66.4173 84.0413 65.4658C84.791 64.5143 85.1089 63.5247 85.1089 62.4569C85.1132 62.1389 85.0545 61.8232 84.9362 61.5285C84.8179 61.2339 84.6425 60.9663 84.4203 60.7415C84.1981 60.5168 83.9337 60.3396 83.6427 60.2203C83.3517 60.101 83.04 60.0421 82.7261 60.0471ZM85.0723 67.1792C84.4508 67.189 83.8586 67.4483 83.4257 67.9001C82.9927 68.3519 82.7543 68.9593 82.7628 69.5891C82.4519 69.5846 82.1433 69.6428 81.8548 69.7603C81.5663 69.8778 81.3037 70.0522 81.0823 70.2734C80.8609 70.4946 80.6851 70.7582 80.5651 71.0488C80.4451 71.3395 80.3833 71.6514 80.3833 71.9664C80.3833 72.2815 80.4451 72.5934 80.5651 72.8841C80.6851 73.1747 80.8609 73.4383 81.0823 73.6595C81.3037 73.8807 81.5663 74.0551 81.8548 74.1726C82.1433 74.2901 82.4519 74.3483 82.7628 74.3438C84.2798 74.3438 85.6377 73.5495 86.3874 72.5979C87.1371 71.6464 87.455 70.6569 87.455 69.5891C87.4593 69.271 87.4006 68.9553 87.2823 68.6606C87.1641 68.366 86.9886 68.0984 86.7664 67.8737C86.5442 67.649 86.2798 67.4717 85.9888 67.3524C85.6978 67.2331 85.3861 67.1742 85.0723 67.1792ZM83.2119 83.9555C83.5025 84.7559 83.9061 85.4694 84.362 86.0589C85.2486 87.2053 86.2535 88 87.1022 88.7381C88.7997 90.2142 89.8012 91.0369 89.8012 93.3628C89.8012 94.3523 89.6758 94.6208 89.2146 94.8765C85.7413 93.6692 80.4167 91.0634 80.4167 86.2446C80.4167 84.5963 81.764 84.114 83.2119 83.9555ZM92.0831 98.6516C92.0174 98.7681 91.9635 98.8881 91.8861 98.9998C91.9612 98.8881 92.0151 98.7681 92.0831 98.6516ZM91.4966 99.4734C91.3816 99.6113 91.2774 99.7583 91.1483 99.8867C91.1624 99.8724 91.1801 99.8591 91.1942 99.8449C91.3091 99.7284 91.3934 99.597 91.4966 99.4734ZM82.0617 101.103C82.1814 101.163 82.2972 101.213 82.4146 101.266C82.2996 101.216 82.1814 101.16 82.0617 101.103Z" fill="white"/>
</svg>
