<svg width="129" height="129" viewBox="0 0 129 129" fill="none" xmlns="http://www.w3.org/2000/svg">
<g filter="url(#filter0_i_2120_493)">
<circle cx="64.944" cy="64.2768" r="60.0495" fill="#7E34A3"/>
</g>
<circle cx="64.944" cy="64.2768" r="62.0495" stroke="white" stroke-width="4"/>
<path d="M72.1127 59.3528C70.6579 58.5761 69.02 58.1684 67.3701 58.157L71.1201 46.9213C71.9991 47.5249 73.0809 47.7916 74.1462 47.6875L72.1127 59.3528Z" fill="#CC00FF"/>
<path d="M85.968 66.9151L76.9646 68.5913C77.1882 67.0704 77.0051 65.4769 76.374 63.9592L85.5993 64.0144C85.3019 64.9405 85.4006 65.9763 85.9579 66.899C85.9627 66.9071 85.9627 66.9071 85.968 66.9151Z" fill="#CC00FF"/>
<path d="M72.1116 82.4888C71.8957 82.6017 71.6983 82.7261 71.5181 82.8621L68.0732 76.2538C69.4376 76.1808 70.7966 75.8273 72.0575 75.1678C72.2817 75.0507 72.4929 74.9299 72.6986 74.8011L74.4449 81.9408C73.6497 81.9261 72.8503 82.1027 72.1116 82.4888Z" fill="#CC00FF"/>
<path d="M58.2047 83.3222C57.5802 82.4347 56.6191 81.8608 55.5801 81.6862L60.1567 73.342C61.3022 74.5478 62.7409 75.4211 64.3063 75.9221L58.2047 83.3222Z" fill="#CC00FF"/>
<path d="M57.8179 66.1787L48.0752 61.4522C48.774 60.6873 49.1666 59.7244 49.2118 58.7117L59.601 61.9002C58.6161 63.1515 58.0076 64.6271 57.8179 66.1787Z" fill="#CC00FF"/>
<path d="M72.6884 76.0615C67.6294 78.7054 61.1466 76.9069 58.2085 72.0447C55.271 67.1824 56.9904 61.0971 62.0494 58.4531C67.1078 55.8093 73.5912 57.6077 76.5287 62.47C79.4668 67.3323 77.7468 73.4175 72.6884 76.0615Z" fill="#CC00FF"/>
<path d="M76.3863 48.0113C73.855 49.3343 70.6166 48.436 69.1469 46.0028C67.6767 43.5697 68.5355 40.5301 71.0668 39.2071C73.5987 37.884 76.8365 38.7823 78.3068 41.2155C79.777 43.6487 78.9182 46.6882 76.3863 48.0113Z" fill="#CC00FF"/>
<path d="M57.2915 89.3028C54.9934 90.5039 52.0446 89.686 50.7099 87.4769C49.3753 85.2679 50.1574 82.5001 52.4555 81.299C54.7543 80.0978 57.7025 80.9158 59.0371 83.1248C60.3717 85.3338 59.5896 88.1015 57.2915 89.3028Z" fill="#CC00FF"/>
<path d="M47.3205 63.3521C44.5597 64.7948 41.0256 63.8144 39.4228 61.1611C37.8193 58.5078 38.7567 55.1903 41.5175 53.7476C44.2778 52.3048 47.8124 53.2853 49.4153 55.9385C51.0187 58.5918 50.0808 61.9094 47.3205 63.3521Z" fill="#CC00FF"/>
<path d="M91.7456 69.0468C89.4469 70.2481 86.4987 69.4301 85.164 67.221C83.8294 65.012 84.6115 62.2443 86.9096 61.0431C89.2078 59.8419 92.1566 60.6599 93.4912 62.8689C94.8258 65.078 94.0437 67.8457 91.7456 69.0468Z" fill="#CC00FF"/>
<path d="M77.3139 91.2458C74.553 92.6885 71.019 91.708 69.4155 89.0548C67.8127 86.4016 68.75 83.084 71.5108 81.6413C74.2711 80.1985 77.8057 81.179 79.4086 83.8323C81.0115 86.4855 80.0741 89.8031 77.3139 91.2458Z" fill="#CC00FF"/>
<defs>
<filter id="filter0_i_2120_493" x="0.894531" y="0.227295" width="128.099" height="139.099" filterUnits="userSpaceOnUse" color-interpolation-filters="sRGB">
<feFlood flood-opacity="0" result="BackgroundImageFix"/>
<feBlend mode="normal" in="SourceGraphic" in2="BackgroundImageFix" result="shape"/>
<feColorMatrix in="SourceAlpha" type="matrix" values="0 0 0 0 0 0 0 0 0 0 0 0 0 0 0 0 0 0 127 0" result="hardAlpha"/>
<feMorphology radius="13" operator="dilate" in="SourceAlpha" result="effect1_innerShadow_2120_493"/>
<feOffset dy="17"/>
<feGaussianBlur stdDeviation="12"/>
<feComposite in2="hardAlpha" operator="arithmetic" k2="-1" k3="1"/>
<feColorMatrix type="matrix" values="0 0 0 0 0.75075 0 0 0 0 0.300781 0 0 0 0 0.9625 0 0 0 1 0"/>
<feBlend mode="normal" in2="shape" result="effect1_innerShadow_2120_493"/>
</filter>
</defs>
</svg>
