<svg width="19" height="19" fill="none" xmlns="http://www.w3.org/2000/svg"><path d="M2.181 11.075c-1.6 1.66-1.6 4.363 0 6.023a4.012 4.012 0 0 0 5.81 0l3.228-3.346c1.6-1.66 1.6-4.363 0-6.023a.673.673 0 0 0-.486-.215.673.673 0 0 0-.49.208.723.723 0 0 0-.2.507c.001.19.076.371.207.504a2.89 2.89 0 0 1 0 4.015l-3.227 3.346c-1.082 1.12-2.792 1.12-3.874 0a2.89 2.89 0 0 1 0-4.015L6.216 8.9a.724.724 0 0 0 .007-1.011.672.672 0 0 0-.49-.208.673.673 0 0 0-.486.215l-3.066 3.179Zm6.133-6.357c-1.601 1.66-1.601 4.363 0 6.023a.673.673 0 0 0 .486.214.673.673 0 0 0 .489-.208.723.723 0 0 0 .2-.506.722.722 0 0 0-.207-.504 2.89 2.89 0 0 1 0-4.015l3.228-3.346c1.081-1.121 2.792-1.121 3.873 0a2.89 2.89 0 0 1 0 4.015l-3.066 3.178a.723.723 0 0 0-.207.504c-.002.19.07.373.2.507s.306.21.489.208a.674.674 0 0 0 .486-.215l3.066-3.178c1.601-1.66 1.601-4.363 0-6.023a4.012 4.012 0 0 0-5.81 0L8.314 4.718Z" fill="#FF5C00"/></svg>